# xmcd CD database file
#
# Track frame offsets:
#	150
#	17202
#	29657
#	56337
#	69365
#	89762
#	104612
#	130292
#	149145
#	168807
#
# Disc length: 2535 seconds
#
# Revision: 2
# Processed by: cddbd v1.5.2PL0 Copyright (c) Steve Scherf et al.
# Submitted via: CDex 1.51
#
DISCID=9309e50a
DTITLE=Coco Robicheaux - Hoodoo Party
DYEAR=2000
DGENRE=Rock
TTITLE0=Burn My Bones
TTITLE1=Real Smooth Talker
TTITLE2=Li'l Black Hen
TTITLE3=Fair In Love
TTITLE4=Hoodoo Party
TTITLE5=Thrift Store Suit
TTITLE6=In The Wee Wee Hours
TTITLE7=Mean Ol' Lady
TTITLE8=Decision Blues
TTITLE9=The Gras Looks Greener
EXTD=YEAR: 2000
EXTT0=
EXTT1=
EXTT2=
EXTT3=
EXTT4=
EXTT5=
EXTT6=
EXTT7=
EXTT8=
EXTT9=
PLAYORDER=
